<svg xmlns="http://www.w3.org/2000/svg" viewBox="0 0 12.991 12.991">
  <defs>
    <style>
      .cls-1 {
        fill: #14375b;
      }
    </style>
  </defs>
  <path id="ico-telepondesu-blue" class="cls-1" d="M-.482-10.74a.482.482,0,0,1,.355.2A.643.643,0,0,1,0-10.156,11.588,11.588,0,0,1-1.6-4.215,11.838,11.838,0,0,1-5.84.025a11.588,11.588,0,0,1-5.941,1.6.643.643,0,0,1-.381-.127.482.482,0,0,1-.2-.355L-12.975-1.5a.573.573,0,0,1,.051-.406.547.547,0,0,1,.3-.279L-9.775-3.4a.55.55,0,0,1,.368-.025.756.756,0,0,1,.343.2L-7.82-1.7A8.925,8.925,0,0,0-5.167-3.555,9.328,9.328,0,0,0-3.326-6.2L-4.85-7.439a.756.756,0,0,1-.2-.343.55.55,0,0,1,.025-.368l1.219-2.844a.547.547,0,0,1,.279-.3.573.573,0,0,1,.406-.051Z" transform="translate(12.991 11.366)"/>
</svg>
