<svg xmlns="http://www.w3.org/2000/svg" width="190.847" height="37.126" viewBox="0 0 190.847 37.126">
  <g id="logo" transform="translate(0 0)">
    <g id="Group_3399" data-name="Group 3399" transform="translate(60.185 10.257)">
      <path id="Path_24298" data-name="Path 24298" d="M398.9,73.519V70.641H383.219l.111-1.5h-7.17l-.113,1.5H373.6v2.877h2.234l-1.2,16.137h7.172L383,73.519Z" transform="translate(-373.6 -68.259)" fill="#fff"/>
      <path id="Path_24299" data-name="Path 24299" d="M451.82,174.789l15.757,1.081v-2.879L451.82,171.91Z" transform="translate(-439.219 -154.473)" fill="#fff"/>
      <rect id="Rectangle_5693" data-name="Rectangle 5693" width="13.885" height="2.843" transform="translate(13.211 8.557)" fill="#fff"/>
      <path id="Path_24300" data-name="Path 24300" d="M577.647,73.47,570.42,87.147h5.859l4.553-9.247,11.148,15.388h7.467L585.112,73.47Z" transform="translate(-538.713 -71.891)" fill="#fff"/>
      <rect id="Rectangle_5694" data-name="Rectangle 5694" width="2.827" height="4.301" transform="translate(127.834)" fill="#fff"/>
      <rect id="Rectangle_5695" data-name="Rectangle 5695" width="2.827" height="4.301" transform="translate(51.343 1.229)" fill="#fff"/>
      <rect id="Rectangle_5696" data-name="Rectangle 5696" width="2.827" height="4.301" transform="translate(55.658 1.229)" fill="#fff"/>
      <path id="Path_24301" data-name="Path 24301" d="M982.03,89.656h6.8V69.14h-6.785Z" transform="translate(-884.015 -68.259)" fill="#fff"/>
      <path id="Path_24302" data-name="Path 24302" d="M1053.834,76.318V69.977h3.243V63.67h-2.827v4.3h-2.117l.013-3.418h-5V67.1h-9.424v2.879h9.424v6.341h-7.592A1.551,1.551,0,0,0,1038,77.871v5.646a1.551,1.551,0,0,0,1.551,1.551h12.731a1.551,1.551,0,0,0,1.551-1.551V79.2h3.28l0-2.879h-3.273Zm-6.69,5.87h-3.5l.015-2.992h3.489v2.992Z" transform="translate(-930.733 -63.67)" fill="#fff"/>
      <path id="Path_24303" data-name="Path 24303" d="M806.166,78.907h-3.539l1.708-4.213a1.55,1.55,0,0,0-1.456-2.085H783.536v2.879H796.8l-1.379,3.418h-12.9v2.843h18.006v7.937h-4.1V86.337a1.551,1.551,0,0,0-1.551-1.551h-10.8a1.551,1.551,0,0,0-1.551,1.551v4.678a1.551,1.551,0,0,0,1.551,1.551h22.093a1.551,1.551,0,0,0,1.551-1.551V80.459a1.551,1.551,0,0,0-1.551-1.551ZM791.29,90.1h-3.65V87.255h3.65Z" transform="translate(-716.645 -71.17)" fill="#fff"/>
    </g>
    <g id="Group_3400" data-name="Group 3400" transform="translate(0 0)">
      <path id="Path_24304" data-name="Path 24304" d="M154.137,14.272H151.6V11.609h-22.13L151.4,7.741c-.2-1.11-1.727-1.664-3.009-1.793-4.082-.408-4.612-.47-7.491-.725-1.672-.148-2.215-.546-2.3-1-.151-.857,1.155-1.661.978-2.669-.187-1.06-1.128-1.83-3.238-1.458s-2.731,1.418-2.544,2.478c.177,1.008,1.68,1.316,1.832,2.175.081.454-.293,1.013-1.816,1.724-2.618,1.224-3.093,1.464-6.79,3.243-1.161.559-2.412,1.6-2.215,2.714l1.344-.237v2.08h-2.542a1.071,1.071,0,1,0,0,2.143h2.542v7.222h17.519V20.121a1.864,1.864,0,0,1,3.728,0v3.515h4.193V16.414h2.542a1.071,1.071,0,1,0,0-2.143Zm-19.71,7.618h-2.371V19.519h2.371Zm0-3.3h-2.371V16.223h2.371Zm3.3,3.3h-2.371V19.519h2.371Zm0-3.3h-2.371V16.223h2.371Z" transform="translate(-102.799 0)" fill="#fff"/>
      <path id="Path_24305" data-name="Path 24305" d="M50.37,153.87H0V156.9H21.778c1.671,5.358,7.436,9.3,14.3,9.3,7.866,0,14.294-5.189,14.76-11.744a.509.509,0,0,0-.464-.594Z" transform="translate(0 -129.082)" fill="#fff"/>
    </g>
  </g>
</svg>
