<svg id="full-color-logo" xmlns="http://www.w3.org/2000/svg" viewBox="0 0 168 40.999">
  <defs>
    <style>
      .cls-1 {
        fill: #263b5c;
      }

      .cls-2 {
        fill: #f1645c;
      }

      .cls-3 {
        fill: #fff;
      }
    </style>
  </defs>
  <g id="レイヤー_2" data-name="レイヤー 2" transform="translate(0 0)">
    <g id="Group_1042" data-name="Group 1042" transform="translate(0 0)">
      <path id="Path_1899" data-name="Path 1899" class="cls-1" d="M38.687,0H1.106A1.116,1.116,0,0,0,0,1.126V39.382a1.116,1.116,0,0,0,1.106,1.126h10.5a1.1,1.1,0,0,0,1.005-.547,1.146,1.146,0,0,0,0-1.16,1.1,1.1,0,0,0-1.005-.547H2.215V22.507H8.661a1.1,1.1,0,0,0,1.005-.547,1.146,1.146,0,0,0,0-1.16,1.1,1.1,0,0,0-1.005-.547H2.215V5.845H16.944V20.293a1.128,1.128,0,0,0,.23,2.227h5.458a1.128,1.128,0,0,0,.2-2.233V5.845H37.578V20.252H31.132a1.1,1.1,0,0,0-1.005.547,1.146,1.146,0,0,0,0,1.16,1.1,1.1,0,0,0,1.005.547h6.446V38.253H21.031v-5.33a1.106,1.106,0,1,0-2.212,0v6.458a1.116,1.116,0,0,0,1.106,1.126H38.687a1.116,1.116,0,0,0,1.106-1.126V1.126A1.116,1.116,0,0,0,38.687,0Z"/>
      <circle id="Ellipse_257" data-name="Ellipse 257" class="cls-2" cx="6.628" cy="6.628" r="6.628" transform="translate(22.576 24.062)"/>
      <path id="Path_1900" data-name="Path 1900" class="cls-1" d="M23.041,39.778a.728.728,0,0,1-.758.761.758.758,0,0,1-.8-.782v-.021c0-.977.021-2.172.021-3.04,0-.238-.043-.268-.268-.268-.913,0-2.019,0-2.844.043a.744.744,0,0,1-.782-.761.7.7,0,0,1,.718-.736h.021c.629.021,1.875.021,2.946.021.2,0,.217-.107.217-.268,0-2.41-.021-2.713-.021-2.8a.718.718,0,0,1,.777-.763.739.739,0,0,1,.782.736v.021c-.021.608-.021,1.8-.021,2.823,0,.217.043.268.268.268,1.02,0,2.215,0,2.887-.021H26.2a.728.728,0,0,1,.782.736.753.753,0,0,1-.8.761c-.932,0-2.062-.021-2.887-.021-.238,0-.268.088-.268.281,0,1.071,0,2.322.021,3.018Z" transform="translate(-12.891 -22.62)"/>
      <path id="Path_1901" data-name="Path 1901" class="cls-1" d="M23.07,105.293a.728.728,0,0,1-1.071,0,.758.758,0,0,1-.016-1.122l.016-.013c.691-.691,1.551-1.521,2.164-2.142.169-.169.153-.214-.016-.383-.645-.645-1.427-1.427-2.041-1.979a.744.744,0,0,1-.027-1.082.7.7,0,0,1,1.028-.016l.016.016c.428.461,1.3,1.339,2.07,2.1.139.137.23.075.337-.032,1.706-1.7,1.9-1.934,1.966-2a.723.723,0,0,1,1.106,0,.742.742,0,0,1,.029,1.071l-.016.016c-.445.415-1.288,1.259-2.009,1.979-.155.155-.155.217,0,.37.72.72,1.564,1.564,2.057,2.025l.013.016a.728.728,0,0,1,.032,1.071.753.753,0,0,1-1.106-.029c-.659-.661-1.443-1.473-2.025-2.057-.169-.169-.246-.123-.386.016-.75.75-1.642,1.642-2.116,2.142Z" transform="translate(-15.919 -71.425)"/>
      <path id="Path_1902" data-name="Path 1902" class="cls-1" d="M106.107,47.184c-1.738-.021-2.8-.043-3.776-.043-.718,0-1.368,0-2.215.043a.774.774,0,0,1-.846-.846.8.8,0,0,1,.8-.868h.021c.846.021,1.875.021,2.908.021s2.142,0,3.1-.021h.021a.857.857,0,1,1,0,1.714Z" transform="translate(-72.682 -33.064)"/>
      <path id="Path_1903" data-name="Path 1903" class="cls-3" d="M102.058,103.923c-1.875-.021-1.248-.043-2.788-.043-.932,0-1.824,0-2.678.043a.694.694,0,0,1-.8-.715.726.726,0,0,1,.761-.739h.021c.846.021,0,.021,1.508.021s3.018,0,3.972-.021h.024a.731.731,0,1,1,0,1.454Zm0,3.6c-1.875-.024-1.248-.046-2.788-.046-.932,0-1.824,0-2.678.046a.7.7,0,0,1-.8-.718.723.723,0,0,1,.761-.736h.021c.846.021,0,.021,1.508.021s3.018,0,3.972-.021h.024a.731.731,0,1,1,0,1.454Z" transform="translate(-70.135 -74.46)"/>
    </g>
    <g id="Group_1043" data-name="Group 1043" transform="translate(71.63 32.783)">
      <path id="Path_1904" data-name="Path 1904" class="cls-1" d="M268.061,127.7a4.609,4.609,0,0,0-1.018-1.339.236.236,0,0,1-.094-.177.311.311,0,0,1,.316-.284c.335,0,1.4,1.371,1.4,1.655a.354.354,0,0,1-.335.345A.327.327,0,0,1,268.061,127.7Zm-.107,4.071a.268.268,0,0,1-.292-.281.345.345,0,0,1,.22-.316,8.222,8.222,0,0,0,4.855-5.766.319.319,0,0,1,.313-.268.345.345,0,0,1,.345.335.536.536,0,0,1-.021.115,9.269,9.269,0,0,1-5.19,6.133.5.5,0,0,1-.23.048Zm2.051-4.834a4.552,4.552,0,0,0-.817-1.454.235.235,0,0,1-.062-.147.308.308,0,0,1,.554-.145,5.255,5.255,0,0,1,.953,1.642.348.348,0,0,1-.335.345A.305.305,0,0,1,270.006,126.941Z" transform="translate(-266.95 -123.644)"/>
      <path id="Path_1905" data-name="Path 1905" class="cls-1" d="M342.73,126.3a.268.268,0,0,1,.137-.23,6,6,0,0,0,1.607-1.778.268.268,0,0,1,.49.126c0,.324-1.486,2.177-1.936,2.177A.3.3,0,0,1,342.73,126.3Zm4.175-5.525c0,.367-.021.943-.021,1.607h2.649c.23,0,.345.137.345.268a.319.319,0,0,1-.356.281H349.5c-.659-.032-1.318-.04-1.987-.04h-.619v3.586c0,.71-.512,1.071-1.213,1.071-.313,0-.994-.072-.994-.407a.281.281,0,0,1,.281-.284.243.243,0,0,1,.083,0,2.354,2.354,0,0,0,.669.126c.356,0,.6-.166.608-.637V122.9c-.932.021-1.861.043-2.793.086h0a.289.289,0,0,1-.313-.268c0-.126.094-.241.313-.252.921-.029,1.851-.051,2.793-.062v-1.591h0a.268.268,0,0,1,.268-.313.305.305,0,0,1,.313.292Zm2.908,5.431a6.3,6.3,0,0,0-1.768-1.607.209.209,0,0,1-.1-.187.268.268,0,0,1,.268-.268c.335,0,2.142,1.435,2.142,1.875a.34.34,0,0,1-.324.324A.268.268,0,0,1,349.813,126.205Zm-.785-4.668a3.482,3.482,0,0,0-.8-.994.2.2,0,0,1,.147-.367,2.272,2.272,0,0,1,1.141,1.235.268.268,0,0,1-.268.268A.233.233,0,0,1,349.029,121.537Zm1.13-.428a3.513,3.513,0,0,0-.817-.994.238.238,0,0,1-.094-.169.214.214,0,0,1,.23-.2c.335,0,1.173.911,1.173,1.224a.268.268,0,0,1-.268.284.244.244,0,0,1-.225-.147Z" transform="translate(-322.436 -119.748)"/>
      <path id="Path_1906" data-name="Path 1906" class="cls-1" d="M422.093,129.232a.268.268,0,0,1-.3-.268c0-.1.083-.23.268-.305a8.861,8.861,0,0,0,3.83-2.74,6.607,6.607,0,0,0-1.551-.712.209.209,0,0,1-.155-.209.268.268,0,0,1,.268-.268,6.213,6.213,0,0,1,1.781.755,10.474,10.474,0,0,0,1.307-2.282c0-.158-.1-.23-.268-.23-.241,0-1.759.1-2.292.166-.817,1.09-2.209,2.678-2.678,2.678a.268.268,0,0,1-.268-.268.386.386,0,0,1,.209-.313,10.738,10.738,0,0,0,2.973-3.527.327.327,0,0,1,.637.083c0,.115-.145.335-.482.828.241-.021,1.821-.147,2.094-.147.5,0,.774.268.774.64a1.141,1.141,0,0,1-.158.536,18.479,18.479,0,0,1-1.339,2.142c.565.386,1.071.8,1.071,1.047a.292.292,0,0,1-.522.187,5.263,5.263,0,0,0-.892-.785A9,9,0,0,1,422.093,129.232Z" transform="translate(-380.323 -121.018)"/>
      <path id="Path_1907" data-name="Path 1907" class="cls-1" d="M503.733,128.146a4.643,4.643,0,0,0-1.749-.911.238.238,0,0,1-.177-.252.311.311,0,0,1,.3-.313,6.449,6.449,0,0,1,2.062.932.329.329,0,0,1,.137.268.38.38,0,0,1-.345.378A.33.33,0,0,1,503.733,128.146Zm-1.141,4.395a.345.345,0,0,1-.367-.335.367.367,0,0,1,.324-.345,9.048,9.048,0,0,0,5.514-4.877.311.311,0,0,1,.284-.177.316.316,0,0,1,.324.313.4.4,0,0,1-.054.209,9.854,9.854,0,0,1-6.031,5.211Z" transform="translate(-438.911 -124.816)"/>
    </g>
    <rect id="Rectangle_2829" data-name="Rectangle 2829" class="cls-1" width="84.452" height="0.659" transform="translate(64.333 28.436)"/>
    <g id="Group_1045" data-name="Group 1045" transform="translate(45.104 0)">
      <g id="Group_1044" data-name="Group 1044">
        <path id="Path_1908" data-name="Path 1908" class="cls-1" d="M172.9,20.954c-.52,0-.554.032-.554.52,0,1.24-.1,4.82-.1,7.333,0,2.574.064,4.464,2.8,4.464.327,0,.686-.035,1.01-.067h.1a.594.594,0,0,1,.554.653c0,.651-.75.779-1.859.779-3.942,0-3.942-3.321-3.942-4.788,0-2.118.064-6.352.064-7.983V21.3c0-.295-.032-.359-.268-.359h-2.247a.645.645,0,1,1,0-1.272h2.215c.228,0,.292,0,.292-.228,0-.163.032-1.875.032-3.128V15.47a.706.706,0,1,1,1.4.054c0,.977-.067,3.846-.067,3.846,0,.292.067.292.522.292h3.128a.64.64,0,1,1,0,1.272Z" transform="translate(-167.711 -10.778)"/>
        <path id="Path_1909" data-name="Path 1909" class="cls-1" d="M218.962,47.25c-3.714,0-5.212-2.118-5.212-2.737a.777.777,0,0,1,1.433-.391,4.382,4.382,0,0,0,3.779,1.792c2.381,0,3.551-1.368,3.551-2.7a3.284,3.284,0,0,0-2.051-2.769c-.977-.522-2.41-1.106-3.388-1.532a3.819,3.819,0,0,1-2.541-3.452c0-1.826,1.5-3.586,4.269-3.586,2.215,0,4.43,1.141,4.43,2.142a.726.726,0,0,1-.718.718,1,1,0,0,1-.715-.391,3.568,3.568,0,0,0-3-1.269c-1.859,0-2.868,1.106-2.868,2.279a2.733,2.733,0,0,0,1.759,2.378c.913.426,2.442,1.01,3.452,1.532a4.515,4.515,0,0,1,2.8,3.91C223.948,44.676,222.807,47.25,218.962,47.25Z" transform="translate(-201.42 -23.335)"/>
        <path id="Path_1910" data-name="Path 1910" class="cls-1" d="M276.037,33.027c-.067,2.183-.1,5.115-.1,8.048,0,2.279.032,3.875,1.01,5.051a.742.742,0,0,1-.587,1.205c-.977,0-1.433-2.054-1.465-2.477-.032-.131-.064-.163-.1-.163s-.032,0-.064.067a6.163,6.163,0,0,1-5.343,2.769,5.025,5.025,0,0,1-5.343-5.15c-.035-1.042-.067-3.481-.067-5.766,0-1.4,0-2.737.032-3.615a.648.648,0,0,1,.686-.686.678.678,0,0,1,.75.651v.035c-.032,1.4-.067,4.017-.067,6.16,0,1.4.035,2.574.067,3.1.2,2.833,2.019,4.039,4.017,4.039a4.984,4.984,0,0,0,5.088-4.657c.032-1.044.032-3.1.032-5.506v-3.12a.675.675,0,0,1,.718-.686.726.726,0,0,1,.75.686Z" transform="translate(-238.199 -23.654)"/>
        <path id="Path_1911" data-name="Path 1911" class="cls-1" d="M328.785.8c-.1,2.868-.1,6.427-.1,10.361,0,.268,0,.423.067.423s.161-.1.324-.327a6.6,6.6,0,0,1,5.506-2.737c4.138,0,7.231,3.1,7.231,7.592,0,4.66-3.1,7.624-7.231,7.624a6.762,6.762,0,0,1-5.375-2.584,3.491,3.491,0,0,0-.4-.5c-.064,0-.064.067-.064.295,0,2.346-.067,2.737-.782,2.737-.359,0-.686-.268-.686-.881,0-3.356.064-10.621.064-16,0-2.7-.032-4.92-.064-5.964A.716.716,0,0,1,328.006,0a.771.771,0,0,1,.782.782Zm11.54,15.324c0-3.808-2.547-6.352-5.806-6.352s-5.833,2.544-5.833,6.352,2.574,6.288,5.833,6.288S340.325,19.906,340.325,16.127Z" transform="translate(-284.544 0)"/>
        <path id="Path_1912" data-name="Path 1912" class="cls-1" d="M465.72,21.238c-.487,0-.487.163-.487.359,0,1.205-.1,3.974-.1,6.125,0,2.541.1,3.583,1.923,3.583a6.5,6.5,0,0,0,.75-.064c.1,0,.163-.035.268-.035a1.4,1.4,0,0,1,1.4,1.435c0,1.173-1.071,1.727-2.769,1.727-4.82,0-4.82-4.269-4.82-5.605,0-1.891.064-5.147.064-6.58v-.5c0-.423-.2-.455-.522-.455h-.978a1.479,1.479,0,0,1-1.465-1.564,1.425,1.425,0,0,1,1.465-1.5h.948c.536,0,.554-.1.554-.554,0,0,.032-.651.032-1.4,0-.391,0-.782-.032-1.141v-.08a1.481,1.481,0,0,1,1.628-1.468,1.708,1.708,0,0,1,1.727,1.99c0,.878-.064,2.116-.064,2.116,0,.536.129.554.455.554h2.183a1.408,1.408,0,0,1,1.433,1.532,1.408,1.408,0,0,1-1.433,1.532Z" transform="translate(-380.978 -9.899)"/>
        <path id="Path_1913" data-name="Path 1913" class="cls-1" d="M519.355,45.333a3.846,3.846,0,0,1-.878-1.071.177.177,0,0,0-.131-.1.289.289,0,0,0-.2.1,6.963,6.963,0,0,1-5.088,1.955,5.359,5.359,0,0,1-5.7-5.115,4.282,4.282,0,0,1,3.16-4.073,32.838,32.838,0,0,1,5.581-1.422c.324-.032.586-.423.586-1.109,0-.391-.1-2.051-2.314-2.051a4.3,4.3,0,0,0-3.192,1.368,1.585,1.585,0,0,1-1.208.586,1.532,1.532,0,0,1-1.564-1.5c0-1.564,2.868-3.291,6.16-3.291,3.583,0,5.538,1.759,5.538,5.506,0,.426-.032.817-.064,1.272a24.97,24.97,0,0,0-.166,2.7,5.11,5.11,0,0,0,.032.747c.295,2.608,1.5,2.7,1.759,2.9a1.363,1.363,0,0,1,.536,1.141,1.679,1.679,0,0,1-2.849,1.457Zm-2.986-7c-5.506.683-5.833,2.051-5.833,2.833,0,1.01.881,2.022,2.542,2.022,2.641,0,3.781-1.339,3.781-3.65,0-.49-.067-1.205-.458-1.205Z" transform="translate(-416.4 -21.68)"/>
        <path id="Path_1914" data-name="Path 1914" class="cls-1" d="M585.336,44.7c.032-1.339.064-3.814.064-5.8,0-1.3-.032-2.41-.064-2.946-.131-2.019-1.272-2.833-2.641-2.833-1.987,0-4.365,1.759-4.462,3.942-.032.586-.032,1.339-.032,2.247,0,1.339.032,3.064.1,5.378a1.538,1.538,0,0,1-1.66,1.66,1.61,1.61,0,0,1-1.727-1.607v-.064c.1-3.1.129-5.246.129-7.169s-.032-3.65-.1-5.833v-.064a1.612,1.612,0,0,1,1.76-1.465,1.535,1.535,0,0,1,1.66,1.529c0,.131-.032.228-.032.327v.1c0,.035,0,.067.032.067s.1-.067.163-.131a6.3,6.3,0,0,1,4.628-1.955,5.327,5.327,0,0,1,5.506,5.442c.032,1.173.1,4.073.1,6.484,0,1.01,0,1.923-.032,2.606a1.647,1.647,0,0,1-1.7,1.727,1.626,1.626,0,0,1-1.693-1.628Z" transform="translate(-465.86 -22.023)"/>
      </g>
      <path id="Path_1915" data-name="Path 1915" class="cls-1" d="M407.691,48.783H395.152a.975.975,0,0,1-.972-.972V35.272a.975.975,0,0,1,.972-.972h12.539a.975.975,0,0,1,.972.972V47.811A.975.975,0,0,1,407.691,48.783Zm-12.373-1.138h12.2V35.438h-12.2Z" transform="translate(-333.53 -25.114)"/>
      <path id="Path_1916" data-name="Path 1916" class="cls-2" d="M399.232,39.484a1.489,1.489,0,0,1-1.071-.439l-5.155-5.163a1.5,1.5,0,0,1,2.126-2.126l4.1,4.113,9.483-9.483a1.5,1.5,0,0,1,2.126,2.126L400.3,39.045A1.494,1.494,0,0,1,399.232,39.484Z" transform="translate(-332.348 -18.997)"/>
    </g>
  </g>
</svg>
