<svg id="Group_3361" data-name="Group 3361" xmlns="http://www.w3.org/2000/svg" xmlns:xlink="http://www.w3.org/1999/xlink" width="127.398" height="169.854" viewBox="0 0 127.398 169.854">
  <defs>
    <clipPath id="clip-path">
      <rect id="Rectangle_5648" data-name="Rectangle 5648" width="127.398" height="169.854" fill="none"/>
    </clipPath>
  </defs>
  <g id="Group_3360" data-name="Group 3360" clip-path="url(#clip-path)">
    <path id="Path_24268" data-name="Path 24268" d="M153.275,121.227A25.416,25.416,0,1,0,127.859,95.81a25.416,25.416,0,0,0,25.416,25.416" transform="translate(-96.834 -53.314)" fill="#aacf52"/>
    <path id="Path_24269" data-name="Path 24269" d="M111.09,432.932l20.3-5.589-13.7-7.1Z" transform="translate(-84.134 -318.273)" fill="#aacf52"/>
    <path id="Path_24270" data-name="Path 24270" d="M95.034,300.281c-2.558-3.889-8.309-6.086-14.539-6.086H31.573c-6.818,0-12.334,1.992-15.028,6.086a165.493,165.493,0,0,0-8.51,14.847c-6.38,12.659-8.858,22.1-7.8,29.7a16.006,16.006,0,0,0,7.232,11.236,21.9,21.9,0,0,0,8.511,3.249,1.749,1.749,0,0,1,.281,0c.058.006,5.838.589,13.6.644,8.4.055,20.006-1.872,24.92-5.205,4.174-2.831,24.062-11.89,29.981-14.564l-5.88-13.29L23.939,342.025a1.8,1.8,0,0,1-2.071-2.56l11.186-21.513a1.8,1.8,0,0,1,3.187,1.657l-1.032,1.984,17.143,8.882,25.06-6.9-2.525-5.706a1.8,1.8,0,1,1,3.285-1.454l10.6,23.949a1.8,1.8,0,0,1-.908,2.366c-.236.106-21.27,9.551-28.958,13.752,7.252,1.24,20.438,3.413,24.058,3.464,3.279.045,7.282-.116,10.06-.259,5.413-.6,8.628-2,11.089-3.625a16.007,16.007,0,0,0,7.232-11.236c1.061-7.6-1.417-17.04-7.8-29.7a165.361,165.361,0,0,0-8.511-14.847" transform="translate(0 -222.809)" fill="#aacf52"/>
    <path id="Path_24271" data-name="Path 24271" d="M155.55,566.661c-4.949-.07-25.249-3.614-28.939-4.265-6.853,3.1-17.626,4.275-23.8,4.276h-.331c-2.425-.017-4.641-.084-6.564-.168,0,0,.286,15.815.529,29.282h64.451c.256-13.516.54-29.2.54-29.2-1.51.048-3.09.082-4.595.082q-.655,0-1.288-.009" transform="translate(-72.639 -425.932)" fill="#aacf52"/>
    <path id="Path_24272" data-name="Path 24272" d="M400.78,19.069q.152-.26.294-.527c1.351-2.546-1.672-4.851-3.51-6.091-.34-.23-.848-.491-1.343-.793,1.573-.126,3-.62,2.78-2.428-.154-1.277-1.264-1.968-2.3-2.525-.5-.27-1.016-.525-1.543-.749a4.543,4.543,0,0,0-1.986-1.876c-1.58-.894-3.229-1.687-4.839-2.526-2.274-1.186-5.387-2.83-7.154.053a9,9,0,0,0-1.143,3.366A3.531,3.531,0,0,0,376.8,2.352c-2.141-.091-3.631,1.437-4.593,3.2a11.354,11.354,0,0,0-2.632-.235c-2.8.12-4.878,2.976-5.864,5.371a9.484,9.484,0,0,0-.605,2.342,9.517,9.517,0,0,0-.143,9.341,8.307,8.307,0,0,0,1.719,2.253,26.884,26.884,0,0,0,1.993,4.657c1.515,2.738,4.477,4.175,7.162,5.55a7.284,7.284,0,0,0,4.008,1.125,6.694,6.694,0,0,0,3.347-1.462,6.846,6.846,0,0,0,4.08.65c1.207-.234,2.7-1.1,2.608-2.33a4.608,4.608,0,0,0,1.2-1.24c.025-.038.049-.08.074-.121.381.152.769.3,1.162.426a4.881,4.881,0,0,0,.427.679,7.594,7.594,0,0,0,1.309,1.288c.872.676,2.254,1.592,3.391.991,1.079-.571,1.385-2.241,1.531-3.309,0-.03.007-.06.011-.091a8.486,8.486,0,0,0,3.063-3.835,17.245,17.245,0,0,0,1.187-7.247,2.439,2.439,0,0,0-.453-1.288M386.884,30.9c-.061-.088-.121-.177-.183-.265.066-.018.131-.037.2-.054l.2.086a3.117,3.117,0,0,1-.214.232M365.4,18.685a23,23,0,0,1-.225-5.028,6.073,6.073,0,0,1,2.048-1.715,4.546,4.546,0,0,1,.656-.266,9.381,9.381,0,0,0-1.995,5.76,12.5,12.5,0,0,0,1.365,5.632,2.605,2.605,0,0,0,.712.9c.031.109.065.217.1.326a4.238,4.238,0,0,1-1.571-.8,31.962,31.962,0,0,1-1.089-4.813M392.154,7.253a5.973,5.973,0,0,1,1.147.222,3.9,3.9,0,0,1-.234.847,9.233,9.233,0,0,0-1.231-1.083c.1,0,.21,0,.318.014m1.831,9.828c-.144-.005-.288-.011-.431-.019a7.927,7.927,0,0,0-1.121-2.756,5.782,5.782,0,0,0-1.181-2.233,6.653,6.653,0,0,1,1.708-.346,12.143,12.143,0,0,1,1.025,5.354m-1,10.823c-1.17.819-2.613.027-3.849.521a6.52,6.52,0,0,0-1.792-.015c-.129-.059-.257-.122-.381-.189.154-.084.344-.183.547-.286a4.08,4.08,0,0,0,2.44-.928,6.846,6.846,0,0,0,1.936-.114,4.42,4.42,0,0,0,1.855-.844,1.812,1.812,0,0,1-.756,1.853m-8.143,3.709c-.1,0-.192-.009-.288-.018.06-.041.121-.081.182-.12.035.046.071.092.106.138m-14.656-7.4c-.052-.165-.1-.329-.153-.5a2.777,2.777,0,0,0,.3-.413q.1-.169.2-.33a1.628,1.628,0,0,1,.253.21,1.925,1.925,0,0,1,.408.629,6.92,6.92,0,0,1-1.015.4m22.382-.307c.066.062.132.128.2.2a2.285,2.285,0,0,1-.789.579q.27-.418.5-.857c.03.027.062.053.092.081m-20.754-2.56c.092-.094.186-.186.282-.276q.091.167.188.332-.037.146-.066.294a3.415,3.415,0,0,0-.4-.35m9.672,2.505-1.13-1.508a5.1,5.1,0,0,0,.593-.4,12.368,12.368,0,0,1,.442,1.334c.049.184.1.374.152.565l-.056.01m5.613-9.777c.025,0,.048-.011.072-.017a3.525,3.525,0,0,0,.016.745,6.948,6.948,0,0,0-.677-.241c-.18-.129-.367-.253-.563-.369l.018-.1a4.317,4.317,0,0,0,1.133-.017m2.67.267a9.271,9.271,0,0,1,.854,2,3.407,3.407,0,0,1-.772-.624,1.94,1.94,0,0,1-.541-1.752c.161.119.314.244.46.374m.461,8.936a4.418,4.418,0,0,1-.446.637,6.052,6.052,0,0,1-.822.782,6.757,6.757,0,0,1-1.347-.57c.341-.509.665-1.028.973-1.54.124-.2.25-.415.376-.629.528.2,1.059.405,1.57.642a5.885,5.885,0,0,1-.3.677m-14.054-8.8a12.092,12.092,0,0,0-1.544-.461,7.606,7.606,0,0,1,2,.008,1.934,1.934,0,0,0-.459.453m8.833,2.778a5.543,5.543,0,0,1,.1.653c-.12-.061-.243-.124-.367-.19q.146-.224.271-.463M389.88,20.1a4.624,4.624,0,0,0,.3-1.693,6.377,6.377,0,0,0,.8.3l.042.011a11.565,11.565,0,0,1-.027,1.837c-.367-.158-.738-.306-1.111-.451m-9.334-5.184c-.119-.142-.231-.288-.339-.437q.305.058.609.122l-.269.314m2.555,4.363.066-.08.069-.04q.906.579,1.857,1.081c-.024.387-.073.774-.134,1.162a5.283,5.283,0,0,0-1.664-2.014c-.064-.039-.13-.075-.2-.109m-10.133-7.962a4.1,4.1,0,0,1,.363-.589,4.843,4.843,0,0,1,.558-.033,4.98,4.98,0,0,0-.921.623m-3.327,9.253-.059,0c.05-.145.124-.3.156-.395a17.593,17.593,0,0,1,1.047-2.43c.078.292.161.577.251.85.046.141.1.286.151.433a10.064,10.064,0,0,0-1.546,1.538M383.45,22.95h0m1.047,1.721c0,.025,0,.049,0,.073a1.66,1.66,0,0,0-.092.169.413.413,0,0,1-.163.167c-.032-.055-.063-.115-.09-.171q.176-.115.346-.239M370.286,14.1a4.445,4.445,0,0,0-2.11,1.515c.031-.129.06-.259.1-.388a6.71,6.71,0,0,1,2.232-3.278,10,10,0,0,0-.221,2.15m5.165,12.172a13.584,13.584,0,0,1,1.07-1.853,3.241,3.241,0,0,0,.726-.159,6.032,6.032,0,0,0,1.821,1.3,4.52,4.52,0,0,0,1.4.375l.515.687c-.712.291-1.4.644-2.155.98-.934.414-1.9.6-2.658-.229a5.355,5.355,0,0,1-.722-1.1m18.1-4.23q-.129-.1-.263-.2a10.4,10.4,0,0,0,.442-2.76l.155.006a25.687,25.687,0,0,1-.334,2.956m-2.175-12.5c.1.1.194.2.288.3a6.5,6.5,0,0,0-2.171.8c-.059-.056-.114-.113-.174-.168-.417-.385-.845-.784-1.289-1.173a8.492,8.492,0,0,1,1.277-1.2,9.081,9.081,0,0,1,2.069,1.438m-6.875,0c-.015.281-.038.56-.065.839L383.3,11.708l-.547-.091a15,15,0,0,1-.692-2.8,6.6,6.6,0,0,1,2.456.541c0,.061-.008.122-.011.184M379.975,8.8c.037.362.084.715.14,1.054.059.355.136.7.223,1.05-.653-.364-1.321-.721-2-1.039-.059-.218-.121-.434-.19-.646a4.242,4.242,0,0,0,.639-.394c.4-.014.8-.021,1.19-.025M371.51,26.01c.01.139.022.274.04.4a6.024,6.024,0,0,0,.389,1.47,1.112,1.112,0,0,1-.344-.286,4.373,4.373,0,0,1-.689-1.371,6.276,6.276,0,0,0,.6-.217m8,3.537a25.01,25.01,0,0,1,2.739-1.245l.42.56c.248.331.512.662.782,1-.228.148-.446.3-.649.462s-.4.33-.6.505c-.516-.263-1.012-.557-1.482-.829a1.056,1.056,0,0,0-1.521,1.188l-.065-.033c-.762-.37-1.61-.75-2.411-1.2a4.967,4.967,0,0,0,2.788-.4m12.835.755a4.069,4.069,0,0,0,2.767-1.7c-.035.48-.037,1-.054,1.518a4.106,4.106,0,0,1-.693.207,5.25,5.25,0,0,1-2.021-.029m3.473-5.715c-.051.182-.093.367-.139.551a4.909,4.909,0,0,0-.477-1.2c.02-.06.041-.119.06-.181a21.13,21.13,0,0,0,.715-4.573,8.971,8.971,0,0,1,1.457.248c.152.041.328.089.506.147-.255.437-.5.88-.72,1.336a21.829,21.829,0,0,0-1.4,3.673m3.462-7.092a1.28,1.28,0,0,1-.14.339,8.889,8.889,0,0,0-2.348-.627c-.235-.031-.48-.052-.733-.066a16.145,16.145,0,0,0-.3-3.391c.3.2.6.391.9.593.846.577,2.89,1.889,2.618,3.153M396.806,9.36c-.037.323-1.438.232-1.8.237l-.279,0a7.5,7.5,0,0,1,.426-1.369c.17.086.338.174.5.263.285.154,1.188.522,1.149.865M383.088,2.5c.6-.733,1.5-.47,2.261-.148,1.376.581,2.687,1.379,4.011,2.07l1.551.809a5.63,5.63,0,0,0-1.849.607,4.487,4.487,0,0,0-2.215-.115,2.563,2.563,0,0,0-1.923,1.5c-.121-.05-.244-.1-.368-.139A9.135,9.135,0,0,0,382,6.661a12.337,12.337,0,0,1,.437-2.638,4.081,4.081,0,0,1,.653-1.52m-5.645,2.183a1.5,1.5,0,0,1,.4,2.129c-.441.032-.889.075-1.335.137a8.543,8.543,0,0,0-1.864-.761c-.116-.036-.235-.072-.353-.107.768-1.243,1.862-2.246,3.146-1.4M369.57,7.392a7.339,7.339,0,0,1,1.776.139c-.178.514-.365,1.054-.518,1.605-.8.114-1.6.133-2.407.26a7.211,7.211,0,0,0-1.978.621c.276-.421.583-.829.906-1.234a3.053,3.053,0,0,1,2.22-1.392m6.074,26.032c-2.632-1.226-5.87-2.721-7.284-5.375-.31-.581-.591-1.186-.856-1.8a6.077,6.077,0,0,0,1.311.227c.07.175.14.35.215.524.64,1.495,1.534,3.7,3.578,3.033a2.845,2.845,0,0,0,.563-.254c1.508,1.619,3.785,2.616,5.81,3.622a3.6,3.6,0,0,1-3.338.022m18.6-.623c-.181-.126-.378-.228-.569-.341a6.554,6.554,0,0,0,1.03-.1,3.21,3.21,0,0,1-.174.378c-.143.261.267.451-.288.064m2.981-4.406c.041-.491.1-.982.184-1.469a19.6,19.6,0,0,1,1.262-4.224c.125-.29.266-.569.413-.842a19.039,19.039,0,0,1-.533,3.727,8.429,8.429,0,0,1-1.327,2.809" transform="translate(-274.013 0)" fill="#aacf52"/>
  </g>
</svg>
